<svg id="Capa_1" enable-background="new 0 0 512 512" height="512" viewBox="0 0 512 512" width="512" xmlns="http://www.w3.org/2000/svg"><g><path d="m256 0c-140.96 0-256 115.049-256 256 0 140.959 115.049 256 256 256 140.959 0 256-115.049 256-256 0-140.96-115.049-256-256-256zm0 482c-124.617 0-226-101.383-226-226s101.383-226 226-226 226 101.383 226 226-101.383 226-226 226z"/><path d="m83.106 323.5h60v30h-60z" transform="matrix(.866 -.5 .5 .866 -154.099 101.905)"/><path d="m158.5 83.106h30v60h-30z" transform="matrix(.866 -.5 .5 .866 -33.308 101.904)"/><path d="m143.5 383.894h60v30h-60z" transform="matrix(.5 -.866 .866 .5 -258.702 349.7)"/><path d="m98.105 143.5h30v60h-30z" transform="matrix(.5 -.866 .866 .5 -93.703 184.701)"/><path d="m61 241h60v30h-60z"/><path d="m241 391h30v60h-30z"/><path d="m241 61h30v60h-30z"/><path d="m346 151c-16.088 0-31.34 3.642-44.982 10.136-14.002-6.643-29.401-10.136-45.018-10.136-57.897 0-105 47.103-105 105s47.103 105 105 105c15.617 0 31.016-3.493 45.018-10.136 13.642 6.494 28.894 10.136 44.982 10.136 57.897 0 105-47.103 105-105s-47.103-105-105-105zm-165 105c0-41.355 33.645-75 75-75 5.083 0 10.13.52 15.066 1.528-18.585 18.952-30.066 44.895-30.066 73.472 0 28.578 11.481 54.52 30.066 73.472-4.936 1.008-9.983 1.528-15.066 1.528-41.355 0-75-33.645-75-75zm165 75c-41.355 0-75-33.645-75-75s33.645-75 75-75 75 33.645 75 75-33.645 75-75 75z"/></g></svg>