<svg id="Capa_1" enable-background="new 0 0 512 512" height="512" viewBox="0 0 512 512" width="512" xmlns="http://www.w3.org/2000/svg"><g><path d="m256 0c-140.61 0-256 115.39-256 256s115.39 256 256 256 256-115.39 256-256-115.39-256-256-256zm-15 61h30v60h-30zm-69.507 18.618 30 51.973-25.986 15-30-51.973zm-76.875 65.889 51.973 30-15 25.986-51.973-30zm-33.618 125.493v-30h60v30zm18.618 69.507 51.973-30 15 25.986-51.973 30zm91.875 91.875-25.986-15 30-51.973 25.986 15zm99.507 18.618h-30v-60h30zm75-90c-16.095 0-31.181-3.937-44.828-10.439-14.064 6.718-29.465 10.439-45.172 10.439-57.891 0-105-47.109-105-105s47.109-105 105-105c15.707 0 31.11 3.721 45.172 10.439 13.647-6.502 28.733-10.439 44.828-10.439 57.891 0 105 47.109 105 105s-47.109 105-105 105z"/><circle cx="346" cy="256" r="75"/><path d="m241 256c0-28.405 11.442-54.128 29.835-73.05-4.889-.989-9.803-1.95-14.835-1.95-41.353 0-75 33.647-75 75s33.647 75 75 75c5.032 0 9.946-.961 14.835-1.95-18.393-18.922-29.835-44.645-29.835-73.05z"/></g></svg>