<svg id="Capa_1" enable-background="new 0 0 512 512" height="512" viewBox="0 0 512 512" width="512" xmlns="http://www.w3.org/2000/svg"><g id="Centigrade"><g><path d="m346 211c-24.813 0-45-20.187-45-45s20.187-45 45-45 45 20.187 45 45-20.187 45-45 45zm0-60c-8.271 0-15 6.729-15 15s6.729 15 15 15 15-6.729 15-15-6.729-15-15-15z"/></g><g><path d="m256 512c-140.959 0-256-115.049-256-256 0-140.959 115.049-256 256-256 140.96 0 256 115.049 256 256 0 140.96-115.049 256-256 256zm0-482c-124.617 0-226 101.383-226 226s101.383 226 226 226 226-101.383 226-226-101.383-226-226-226z"/></g><g><path d="m196 391c-41.355 0-75-33.645-75-75v-120c0-41.355 33.645-75 75-75s75 33.645 75 75c0 8.284-6.716 15-15 15s-15-6.716-15-15c0-24.813-20.187-45-45-45s-45 20.187-45 45v120c0 24.813 20.187 45 45 45s45-20.187 45-45c0-8.284 6.716-15 15-15s15 6.716 15 15c0 41.355-33.645 75-75 75z"/></g></g></svg>